                                                                                                   
_________________________  Visit us at _________________________
  
http://p2pdl.com  ____________________________  http://p2pdl.com


Quartet 2012 BRRip 480p x264 AAC - VYTO


Genre: Comedy | Drama 
Plot: At a home for retired musicians, the annual concert to celebrate Verdi's birthday is disrupted
by the arrival of Jean, an eternal diva and the former wife of one of the residents. 
Director: Dustin Hoffman
Stars: Maggie Smith, Tom Courtenay, Billy Connolly.
Rated: PG-13 for brief strong language and suggestive humor.


Info: 
http://www.imdb.com/title/tt1441951/

Trailer:


Format                         : MPEG-4
File size                      : 300 MiB
Duration                       : 1h 38mn
Overall bit rate               : 426 Kbps
Source                         : 720p.BluRay.X264-AMIABLE

Video
Format                         : AVC
Bit rate                       : 383 Kbps
Width                          : 720 pixels
Height                         : 304 pixels
Display aspect ratio           : 2.35:1
Frame rate mode                : Constant
Frame rate                     : 23.976 fps
Stream size                    : 269 MiB (90%)
Writing library                : x264 core 130 r2273

Audio
Format                         : AAC
Bit rate mode                  : Variable
Bit rate                       : 40.0 Kbps
Channel(s)                     : 2 channels
Channel positions              : Front: L R
Sampling rate                  : 48.0 KHz
Stream size                    : 28.1 MiB (9%)
Language                       : English

Subtitle                       : Yes(English)

 
http://www.ultraimg.com/images/b1pr.png 
http://www.ultraimg.com/images/FysTW.png 
http://www.ultraimg.com/images/zRsWr.png 
http://www.ultraimg.com/images/Nmba.png 
http://www.ultraimg.com/images/wXDKp.png 
http://www.ultraimg.com/images/HkcNe.png


----------------------------------------------------------------------------------------------------


Encoded using revolutionary 10bit encoding, which enables us to provide you more crispier 
and sharper images at small sizes, just make sure you follow our instructions without a fault.
Recommend to you to use latest version of VLC player. Install K-Lite Codec Pack or shark007 codecs
in case of any kind of problem in playback (For non-VLC Media Player users). Alternatively, install
Core AVC codecs, the fastest decoder that there is coupled with Community Center Codec Pack and play
on Windows Media Player Classic. Check sample to be sure.
Enjoy!

Encoder Notes:Looking For Early Access To Anything You Can Provide DVDScr, R5, DVDR, BluRay, Direct
Audio, Music Releases and Seedboxes. We require dedicated servers, so as to do more 
and fast releases of movies.
If You Got anything to offer please contact us at "contact@p2pdl.com".

Face book Fan Page:   
http://www.fb.me/p2pdl